# xmcd
#
# Track frame offsets:
#	150
#	14215
#	30743
#	48867
#	68239
#	85830
#	118023
#	134188
#	151902
#	175210
#	195851
#	219888
#	231854
#
# Disc length: 3342 seconds
#
# Revision: 1
# Processed by: cddbd v1.5.1PL0 Copyright (c) Steve Scherf et al.
# Submitted via: audiograbber 1.83.01
#
DISCID=af0d0c0d
DTITLE=Monster Mike Welch - Adding Insight To Injury
DYEAR=2004
DGENRE=Blues
TTITLE0=But For The Grace Of You
TTITLE1=Get Over Me
TTITLE2=Lose You
TTITLE3=Good At Goodbye
TTITLE4=Slapback
TTITLE5=Thunder In The Distance
TTITLE6=I Don't Want To Come Down
TTITLE7=Do You Know Who You Are
TTITLE8=Masters Of War
TTITLE9=Flying High
TTITLE10=Tomorrow Morning
TTITLE11=Into Thin Air
TTITLE12=Kings And Pawns
EXTD=
EXTT0=
EXTT1=
EXTT2=
EXTT3=
EXTT4=
EXTT5=
EXTT6=
EXTT7=
EXTT8=
EXTT9=
EXTT10=
EXTT11=
EXTT12=
PLAYORDER=
